<svg xmlns="http://www.w3.org/2000/svg" viewBox="0 0 1115 610" fill-rule="evenodd" clip-rule="evenodd" style="max-width: 500px; transform: scale(-1, 1);"><g style="max-width: 500px; transform: translate(123px);"><g id="bottom"><path d="M170.116 9.576s-6.137 17.235-34.988 29.616C106.277 51.572 54.713 59.098 0 33.049c24.049 2.581 63.283-2.111 63.283-41.611" fill="none" transform="matrix(-1.71693 .02997 .02994 1.7153 615.803 448.003)"></path><g transform="translate(-199.029 -160.442) scale(2.289) translate(364.302 295.991)"><g style="transform: scale(-1, 1); text-anchor: end;"><text font-family="Roboto, &quot;HelveticaNeue&quot;, &quot;Helvetica Neue&quot;, Helvetica, sans-serif" font-size="0">Blast</text></g></g></g><g id="right"><path d="M132.591-2.45S69.148 67.665 0 28.882C15.681 24.056 39.268 12.41 39.268-27.09" fill="none" transform="matrix(-1.49282 .86188 .86345 1.49554 679.45 325.746)"></path><g transform="translate(-199.029 -160.442) scale(2.289) translate(402.586 239.69)"><g style="transform: scale(-1, 1); text-anchor: end;"><text font-family="Roboto, &quot;HelveticaNeue&quot;, &quot;Helvetica Neue&quot;, Helvetica, sans-serif" font-size="0">Sleep</text></g></g></g><g id="top"><path d="M139 30.496s-62 27.5-139 18c14 1.5 38.5-16.5 38.5-56" fill="none" transform="matrix(1.7183 0 0 -1.71876 210.442 177.733)" stroke="#001aff" stroke-width="6" stroke-linejoin="round"></path><g transform="translate(-199.029 -160.442) scale(2.289) translate(172.987 118.081)"><g style="transform: scale(-1, 1);"><text font-family="Roboto, &quot;HelveticaNeue&quot;, &quot;Helvetica Neue&quot;, Helvetica, sans-serif" font-size="30.778" style="text-anchor: start;">Consume</text></g></g></g><g id="left"><path d="M104.703 26.043S67.539 53.766 0 28.882c15.681-4.826 49.823-15.017 55.856-53.825" fill="none" transform="matrix(1.72358 -.02525 .0253 1.72671 126.697 384.861)"></path><g transform="translate(-199.029 -160.442) scale(2.289) translate(138.609 265.213)"><g style="transform: scale(-1, 1); text-anchor: start;"> <text font-family="Roboto, &quot;HelveticaNeue&quot;, &quot;Helvetica Neue&quot;, Helvetica, sans-serif" font-size="0" style="text-anchor: start;">Play</text></g></g></g><g id="bubble-borders"><g class="Bub border" style="transform: translate(401px, 371px);"><g class="SVG_OP_Bubble border" style="transform: translate(64px, 64px) scale(0.953125, 0.953125) translate(-64px, -64px);"><g style="transform: translate(64px, 64px) scale(1.1, 1.1) translate(-64px, -64px);"><g class="white Bubble"><circle cx="64" cy="64" r="64" fill="#fff"></circle></g></g></g></g><g class="Bub border" style="transform: translate(463px, 157px);"><g class="SVG_OP_Bubble border" style="transform: translate(64px, 64px) scale(2, 2) translate(-64px, -64px);"><g style="transform: translate(64px, 64px) scale(1.1, 1.1) translate(-64px, -64px);"><g class="white Bubble"><circle cx="64" cy="64" r="64" fill="#fff"></circle></g></g></g></g><g class="Bub border" style="transform: translate(211px, 213px);"><g class="SVG_OP_Bubble border" style="transform: translate(64px, 64px) scale(1.50781, 1.50781) translate(-64px, -64px);"><g style="transform: translate(64px, 64px) scale(1.1, 1.1) translate(-64px, -64px);"><g class="white Bubble"><circle cx="64" cy="64" r="64" fill="#fff"></circle></g></g></g></g><g class="Bub border" style="transform: translate(246px, 376px);"><g class="SVG_OP_Bubble border" style="transform: translate(64px, 64px) scale(0.71875, 0.71875) translate(-64px, -64px);"><g style="transform: translate(64px, 64px) scale(1.1, 1.1) translate(-64px, -64px);"><g class="white Bubble"><circle cx="64" cy="64" r="64" fill="#fff"></circle></g></g></g></g></g><g id="lines"><path d="M-18.881 44.5h123.762" stroke="#888" stroke-width="3" transform="matrix(-1.19402 1.23567 -1.23566 -1.19401 492.035 359.857)"></path><path d="M-13.855 37.75h116.71" stroke="#fff" stroke-width="9" transform="matrix(1.31032 1.11893 -1.11157 1.319 371.937 272.307)"></path><path d="M-13.855 37.75h116.71" stroke="#333" stroke-width="3" transform="matrix(1.31032 1.11893 -1.11157 1.319 371.937 272.307)"></path></g><g id="bubbles"><g class="Bub ?Si" style="transform: translate(401px, 371px) scale(-1, 1) translate(-128px, 0px);"><g class="SVG_OP_Bubble ?Si" style="transform: translate(64px, 64px) scale(0.953125, 0.953125) translate(-64px, -64px);"><g class="green Bubble"><circle cx="64" cy="64" r="64" fill="#fff"></circle><circle cx="64" cy="64" r="64" fill="url(#green1)"></circle><circle cx="64" cy="64" r="64" fill="url(#green2)"></circle><path d="M7.32 52.214c0 26.98 113.156 26.98 113.156 0S95.125 3.33 63.898 3.33C32.672 3.33 7.32 25.234 7.32 52.214z" fill="url(#green3)"></path></g><g style="opacity: 1;"><g class="gray Bubble" style="opacity: 1;"><circle cx="64" cy="64" r="64" fill="#fff"></circle><circle cx="64" cy="64" r="64" fill="url(#gray1)"></circle><circle cx="64" cy="64" r="64" fill="url(#gray2)"></circle><path d="M7.32 52.214c0 26.98 113.156 26.98 113.156 0S95.125 3.33 63.898 3.33C32.672 3.33 7.32 25.234 7.32 52.214z" fill="url(#gray3)"></path></g><text x="64" y="84.48" text-anchor="middle" style="opacity: 0.5; font-family: Roboto, HelveticaNeue, &quot;Helvetica Neue&quot;, Helvetica, sans-serif; text-shadow: rgba(0, 0, 0, 0.25) 1px 2px 2px; font-size: 64px;">Si</text></g></g></g><g class="Bub ?Fi" style="transform: translate(463px, 157px) scale(-1, 1) translate(-128px, 0px);"><g class="SVG_OP_Bubble ?Fi" style="transform: translate(64px, 64px) scale(2, 2) translate(-64px, -64px);"><g class="red Bubble"><circle cx="64" cy="64" r="64" fill="#fff"></circle><circle cx="64" cy="64" r="64" fill="url(#red1)"></circle><circle cx="64" cy="64" r="64" fill="url(#red2)"></circle><path d="M7.32 52.214c0 26.98 113.156 26.98 113.156 0S95.125 3.33 63.898 3.33C32.672 3.33 7.32 25.234 7.32 52.214z" fill="url(#red3)"></path></g><g style="opacity: 1;"><g class="gray Bubble" style="opacity: 0;"><circle cx="64" cy="64" r="64" fill="#fff"></circle><circle cx="64" cy="64" r="64" fill="url(#gray1)"></circle><circle cx="64" cy="64" r="64" fill="url(#gray2)"></circle><path d="M7.32 52.214c0 26.98 113.156 26.98 113.156 0S95.125 3.33 63.898 3.33C32.672 3.33 7.32 25.234 7.32 52.214z" fill="url(#gray3)"></path></g><text x="64" y="84.48" text-anchor="middle" style="opacity: 1; font-family: Roboto, HelveticaNeue, &quot;Helvetica Neue&quot;, Helvetica, sans-serif; text-shadow: rgba(0, 0, 0, 0.25) 1px 2px 2px; font-size: 64px;">Fi</text></g></g></g><g class="Bub ?Ne" style="transform: translate(211px, 213px) scale(-1, 1) translate(-128px, 0px);"><g class="SVG_OP_Bubble ?Ne" style="transform: translate(64px, 64px) scale(1.50781, 1.50781) translate(-64px, -64px);"><g class="yellow Bubble"><circle cx="64" cy="64" r="64" fill="#fff"></circle><circle cx="64" cy="64" r="64" fill="url(#yellow1)"></circle><circle cx="64" cy="64" r="64" fill="url(#yellow2)"></circle><path d="M7.32 52.214c0 26.98 113.156 26.98 113.156 0S95.125 3.33 63.898 3.33C32.672 3.33 7.32 25.234 7.32 52.214z" fill="url(#yellow3)"></path></g><g style="opacity: 1;"><g class="gray Bubble" style="opacity: 0;"><circle cx="64" cy="64" r="64" fill="#fff"></circle><circle cx="64" cy="64" r="64" fill="url(#gray1)"></circle><circle cx="64" cy="64" r="64" fill="url(#gray2)"></circle><path d="M7.32 52.214c0 26.98 113.156 26.98 113.156 0S95.125 3.33 63.898 3.33C32.672 3.33 7.32 25.234 7.32 52.214z" fill="url(#gray3)"></path></g><text x="64" y="84.48" text-anchor="middle" style="opacity: 1; font-family: Roboto, HelveticaNeue, &quot;Helvetica Neue&quot;, Helvetica, sans-serif; text-shadow: rgba(0, 0, 0, 0.25) 1px 2px 2px; font-size: 64px;">Ne</text></g></g></g><g class="Bub ?Te" style="transform: translate(246px, 376px) scale(-1, 1) translate(-128px, 0px);"><g class="SVG_OP_Bubble ?Te" style="transform: translate(64px, 64px) scale(0.71875, 0.71875) translate(-64px, -64px);"><g class="blue Bubble"><circle cx="64" cy="64" r="64" fill="#fff"></circle><circle cx="64" cy="64" r="64" fill="url(#blue1)"></circle><circle cx="64" cy="64" r="64" fill="url(#blue2)"></circle><path d="M7.32 52.214c0 26.98 113.156 26.98 113.156 0S95.125 3.33 63.898 3.33C32.672 3.33 7.32 25.234 7.32 52.214z" fill="url(#blue3)"></path></g><g style="opacity: 1;"><g class="gray Bubble" style="opacity: 1;"><circle cx="64" cy="64" r="64" fill="#fff"></circle><circle cx="64" cy="64" r="64" fill="url(#gray1)"></circle><circle cx="64" cy="64" r="64" fill="url(#gray2)"></circle><path d="M7.32 52.214c0 26.98 113.156 26.98 113.156 0S95.125 3.33 63.898 3.33C32.672 3.33 7.32 25.234 7.32 52.214z" fill="url(#gray3)"></path></g><text x="64" y="84.48" text-anchor="middle" style="opacity: 0.5; font-family: Roboto, HelveticaNeue, &quot;Helvetica Neue&quot;, Helvetica, sans-serif; text-shadow: rgba(0, 0, 0, 0.25) 1px 2px 2px; font-size: 64px;">Te</text></g></g></g></g></g><defs><radialGradient id="gray1" cx="0" cy="0" r="1" gradientUnits="userSpaceOnUse" gradientTransform="matrix(84.5895 -.58973 -.60427 -87.2114 63.933 45.585)"><stop offset="0" stop-color="#e3e3e3" stop-opacity="0"></stop><stop offset="1" stop-color="#dadada"></stop></radialGradient><radialGradient id="gray2" cx="0" cy="0" r="1" gradientUnits="userSpaceOnUse" gradientTransform="matrix(70.7996 -.0897 -.1027 -81.5697 63.933 45.585)"><stop offset="0" stop-color="#e3e3e3" stop-opacity="0"></stop><stop offset="0.73" stop-color="#bfbfbf"></stop><stop offset="0.88" stop-color="#a6a6a6"></stop><stop offset="1" stop-color="#424242"></stop></radialGradient><radialGradient id="gray3" cx="0" cy="0" r="1" gradientUnits="userSpaceOnUse" gradientTransform="matrix(-74.9668 1.32545 1.43934 60.8214 63.763 66.28)"><stop offset="0" stop-color="#e3e3e3" stop-opacity="0"></stop><stop offset="0.6" stop-color="#e5e5e5" stop-opacity="0.18"></stop><stop offset="0.81" stop-color="#eaeaea" stop-opacity="0.588"></stop><stop offset="1" stop-color="#efefef"></stop></radialGradient><radialGradient id="green1" cx="0" cy="0" r="1" gradientUnits="userSpaceOnUse" gradientTransform="matrix(84.6241 -.58973 -.60451 -87.2114 64 33.692)"><stop offset="0" stop-color="#00ff18" stop-opacity="0"></stop><stop offset="0.55" stop-color="#00cb60" stop-opacity="0.706"></stop><stop offset="1" stop-color="#00b67e"></stop></radialGradient><radialGradient id="green2" cx="0" cy="0" r="1" gradientUnits="userSpaceOnUse" gradientTransform="matrix(70.8286 -.0897 -.10274 -81.5697 63.959 45.585)"><stop offset="0" stop-color="#00e49c" stop-opacity="0"></stop><stop offset="0.6" stop-color="#00c888" stop-opacity="0.173"></stop><stop offset="0.81" stop-color="#008859" stop-opacity="0.576"></stop><stop offset="1" stop-color="#004528"></stop></radialGradient><radialGradient id="green3" cx="0" cy="0" r="1" gradientUnits="userSpaceOnUse" gradientTransform="matrix(-74.9975 1.32545 1.43993 60.8214 63.783 66.28)"><stop offset="0" stop-color="#00ff98" stop-opacity="0"></stop><stop offset="0.6" stop-color="#25ffa5" stop-opacity="0.18"></stop><stop offset="0.81" stop-color="#78ffc2" stop-opacity="0.588"></stop><stop offset="1" stop-color="#ccffdf"></stop></radialGradient><radialGradient id="yellow1" cx="0" cy="0" r="1" gradientUnits="userSpaceOnUse" gradientTransform="matrix(84.5895 -.58973 -.60427 -87.2114 63.933 45.585)"><stop offset="0" stop-color="#ffff18" stop-opacity="0"></stop><stop offset="1" stop-color="#e8ff00"></stop></radialGradient><radialGradient id="yellow2" cx="0" cy="0" r="1" gradientUnits="userSpaceOnUse" gradientTransform="matrix(70.7996 -.0897 -.1027 -81.5697 63.933 45.585)"><stop offset="0" stop-color="#ffff18" stop-opacity="0"></stop><stop offset="0.73" stop-color="#ffc503"></stop><stop offset="0.88" stop-color="#dfaa02"></stop><stop offset="1" stop-color="#624000"></stop></radialGradient><radialGradient id="yellow3" cx="0" cy="0" r="1" gradientUnits="userSpaceOnUse" gradientTransform="matrix(-74.9668 1.32545 1.43934 60.8214 63.763 66.28)"><stop offset="0" stop-color="#ffff18" stop-opacity="0"></stop><stop offset="0.6" stop-color="#fffe30" stop-opacity="0.18"></stop><stop offset="0.81" stop-color="#fffc65" stop-opacity="0.588"></stop><stop offset="1" stop-color="#fff99b"></stop></radialGradient><radialGradient id="red1" cx="0" cy="0" r="1" gradientUnits="userSpaceOnUse" gradientTransform="matrix(84.8049 -.58973 -.6058 -87.2114 63.965 37.89)"><stop offset="0" stop-color="#ee009f" stop-opacity="0"></stop><stop offset="0.56" stop-color="#fa0661" stop-opacity="0.702"></stop><stop offset="1" stop-color="#ff0847"></stop></radialGradient><radialGradient id="red2" cx="0" cy="0" r="1" gradientUnits="userSpaceOnUse" gradientTransform="matrix(70.98 -.0897 -.10296 -81.5697 64.096 45.585)"><stop offset="0" stop-color="#e60000" stop-opacity="0"></stop><stop offset="0.62" stop-color="#ce000b" stop-opacity="0.165"></stop><stop offset="0.82" stop-color="#940025" stop-opacity="0.565"></stop><stop offset="1" stop-color="#550041"></stop></radialGradient><radialGradient id="red3" cx="0" cy="0" r="1" gradientUnits="userSpaceOnUse" gradientTransform="matrix(-75.1578 1.32545 1.443 60.8214 63.92 66.28)"><stop offset="0" stop-color="#ffb6b6" stop-opacity="0"></stop><stop offset="0.6" stop-color="#ffc3c3" stop-opacity="0.18"></stop><stop offset="0.81" stop-color="#ffe1e1" stop-opacity="0.588"></stop><stop offset="1" stop-color="#fff"></stop></radialGradient><radialGradient id="blue1" cx="0" cy="0" r="1" gradientUnits="userSpaceOnUse" gradientTransform="matrix(84.6547 -.58973 -.60473 -87.2114 64 37.827)"><stop offset="0" stop-color="#0ff" stop-opacity="0"></stop><stop offset="0.44" stop-color="#0ac4ff" stop-opacity="0.8"></stop><stop offset="1" stop-color="#0db5ff"></stop></radialGradient><radialGradient id="blue2" cx="0" cy="0" r="1" gradientUnits="userSpaceOnUse" gradientTransform="matrix(70.8542 -.0897 -.10278 -81.5697 63.982 45.585)"><stop offset="0" stop-color="#0ff" stop-opacity="0"></stop><stop offset="0.6" stop-color="#00dce4" stop-opacity="0.173"></stop><stop offset="0.81" stop-color="#008ba5" stop-opacity="0.576"></stop><stop offset="1" stop-color="#003764"></stop></radialGradient><radialGradient id="blue3" cx="0" cy="0" r="1" gradientUnits="userSpaceOnUse" gradientTransform="matrix(-75.0247 1.32545 1.44045 60.8214 63.806 66.28)"><stop offset="0" stop-color="#0ff" stop-opacity="0"></stop><stop offset="0.6" stop-color="#25fffd" stop-opacity="0.18"></stop><stop offset="0.81" stop-color="#78fffa" stop-opacity="0.588"></stop><stop offset="1" stop-color="#ccfff6"></stop></radialGradient></defs></svg>